<?xml version="1.0" standalone="no"?>
<!DOCTYPE svg PUBLIC "-//W3C//DTD SVG 20010904//EN"
 "http://www.w3.org/TR/2001/REC-SVG-20010904/DTD/svg10.dtd">
<svg version="1.0" xmlns="http://www.w3.org/2000/svg"
 width="1485.000000pt" height="1485.000000pt" viewBox="0 0 1485.000000 1485.000000"
 preserveAspectRatio="xMidYMid meet">
<metadata>
Created by potrace 1.14, written by Peter Selinger 2001-2017
</metadata>
<g transform="translate(0.000000,1485.000000) scale(0.100000,-0.100000)"
fill="#000000" stroke="none">
<path d="M3739 14846 c-2 -2 -47 -7 -100 -10 -53 -4 -107 -9 -120 -11 -13 -2
-46 -6 -74 -10 -101 -13 -121 -16 -195 -30 -77 -15 -82 -16 -160 -34 -25 -5
-56 -12 -70 -15 -41 -8 -140 -36 -230 -64 -47 -14 -87 -27 -90 -27 -3 -1 -14
-5 -25 -9 -11 -4 -33 -12 -50 -18 -16 -5 -39 -14 -50 -19 -11 -4 -56 -22 -100
-40 -171 -66 -389 -174 -559 -276 -145 -87 -392 -261 -486 -342 -14 -12 -50
-43 -80 -69 -259 -221 -555 -563 -747 -862 -192 -301 -360 -660 -456 -980 -31
-103 -94 -351 -101 -401 -3 -20 -7 -42 -10 -50 -3 -8 -7 -32 -10 -54 -3 -22
-9 -51 -13 -65 -4 -14 -9 -1816 -10 -4005 -2 -3840 -1 -3984 17 -4090 10 -60
23 -130 29 -155 5 -25 13 -61 16 -80 23 -130 121 -447 198 -635 134 -330 350
-702 564 -970 433 -541 981 -958 1589 -1209 77 -32 146 -61 154 -65 16 -8 227
-75 346 -110 78 -23 321 -76 394 -86 25 -3 52 -8 60 -10 8 -2 40 -7 70 -10 30
-4 67 -9 83 -11 15 -1 66 -7 115 -11 113 -10 7395 -10 7527 0 682 53 1335 280
1915 665 47 31 87 59 90 62 3 3 50 39 105 80 270 202 571 506 782 790 257 346
463 740 590 1130 23 69 69 225 77 260 17 69 37 156 41 183 3 17 8 39 10 47 2
8 7 31 10 50 3 19 8 49 11 65 11 67 13 82 20 130 8 59 10 80 21 200 11 118 10
7383 0 7500 -9 92 -11 109 -22 204 -8 60 -10 72 -31 191 -106 596 -370 1200
-738 1685 -217 286 -513 582 -791 791 -89 66 -243 174 -250 174 -2 0 -23 13
-47 29 -125 83 -552 301 -591 301 -7 0 -17 4 -23 8 -34 30 -493 175 -624 197
-19 3 -78 15 -130 25 -52 11 -112 22 -132 25 -91 13 -108 15 -159 20 -30 3
-74 8 -99 12 -48 7 -7454 16 -7461 9z"/>
</g>
</svg>
