<svg width="313" height="351" viewBox="0 0 313 351" fill="none" xmlns="http://www.w3.org/2000/svg">
<path d="M227.685 132.012C255.593 132.012 278.217 109.388 278.217 81.4799C278.217 53.572 255.593 30.9482 227.685 30.9482C199.777 30.9482 177.153 53.572 177.153 81.4799C177.153 109.388 199.777 132.012 227.685 132.012Z" fill="#FF6584"/>
<path d="M248.81 265.456C284.157 265.456 312.811 229.59 312.811 185.347C312.811 141.103 284.157 105.237 248.81 105.237C213.464 105.237 184.81 141.103 184.81 185.347C184.81 229.59 213.464 265.456 248.81 265.456Z" fill="#14A445"/>
<path d="M248.986 169.238H249.162L252.327 350.69H245.646L248.986 169.238Z" fill="#CCCCCC"/>
<path d="M259.902 289.365C260.098 289.736 260.138 290.17 260.014 290.571C259.889 290.972 259.611 291.307 259.239 291.502L250.06 296.335L248.586 293.534L257.765 288.702C258.136 288.506 258.57 288.466 258.971 288.591C259.372 288.715 259.707 288.993 259.902 289.365Z" fill="#CCCCCC"/>
<path d="M64.8104 265.456C100.157 265.456 128.811 229.59 128.811 185.347C128.811 141.103 100.157 105.237 64.8104 105.237C29.4638 105.237 0.809692 141.103 0.809692 185.347C0.809692 229.59 29.4638 265.456 64.8104 265.456Z" fill="#8E96DA"/>
<path d="M75.9026 292.365C75.707 291.993 75.3719 291.715 74.971 291.59C74.5702 291.466 74.1363 291.506 73.7649 291.702L67.3567 295.075L65.1619 169.238H64.9861L61.6458 350.69H68.3269L67.4187 298.62L75.2395 294.502C75.6108 294.306 75.8892 293.971 76.0135 293.571C76.1378 293.17 76.0979 292.736 75.9026 292.365Z" fill="#CCCCCC"/>
<path d="M156.588 0.729736C201.376 0.729736 237.779 85.121 237.779 141.182C237.779 197.243 201.471 242.69 156.683 242.69C111.895 242.69 75.5876 197.243 75.5876 141.182C75.5876 85.121 111.8 0.729736 156.588 0.729736Z" fill="#0F4C88"/>
<path d="M170.738 276.786C170.615 276.553 170.448 276.346 170.246 276.178C170.043 276.009 169.81 275.883 169.558 275.805C169.307 275.727 169.042 275.699 168.78 275.723C168.518 275.747 168.263 275.823 168.03 275.945L159.91 280.22L157.129 120.77H156.906L152.674 350.69H161.139L159.989 284.711L169.898 279.494C170.131 279.371 170.338 279.204 170.506 279.001C170.674 278.799 170.801 278.565 170.879 278.314C170.957 278.062 170.985 277.798 170.961 277.536C170.936 277.273 170.861 277.018 170.738 276.786V276.786Z" fill="#3F3D56"/>
</svg>
