<svg width="91" height="61" viewBox="0 0 91 61" fill="none" xmlns="http://www.w3.org/2000/svg">
<g clip-path="url(#clip0_403_8)">
<path d="M46.0999 16.9834C45.2885 15.6414 44.327 14.2086 42.8213 13.7704C41.0775 13.2629 39.2862 14.271 37.7668 15.2658C33.2229 18.2408 28.847 21.4649 24.6592 24.9233L24.6638 24.9754C27.9241 24.7506 31.1845 24.5257 34.4449 24.3009C36.8005 24.1385 39.237 23.9536 41.3188 22.8392C42.1087 22.4164 42.8787 21.8515 43.7739 21.8122C44.886 21.7633 45.8557 22.54 46.6177 23.3515C51.1255 28.1516 52.4299 35.4922 57.4872 39.7095C54.2982 31.845 50.4905 24.2458 46.0999 16.9834V16.9834Z" fill="#F2F2F2"/>
<path d="M73.8083 57.6974C73.3098 57.068 73.1061 56.9205 72.6144 56.2853C68.6107 51.1071 64.8476 45.754 61.325 40.226C58.9323 36.4715 56.6582 32.645 54.5028 28.7464C53.4767 26.893 52.4787 25.025 51.5088 23.1425C50.7562 21.6828 50.0204 20.2144 49.3014 18.7373C49.0957 18.3154 48.8959 17.8915 48.6971 17.4667C48.2287 16.4677 47.7689 15.4639 47.2753 14.4785C46.7128 13.3554 46.028 12.1779 44.9951 11.4234C44.525 11.0659 43.9628 10.8496 43.3744 10.7998C42.5335 10.7454 41.7576 11.0927 41.0282 11.4719C35.692 14.2545 30.6961 17.7431 26.1775 21.7129C21.6472 25.6915 17.5979 30.1864 14.1121 35.106C14.0054 35.2582 13.7533 35.1127 13.8609 34.9595C14.2848 34.3601 14.717 33.7672 15.1576 33.1807C20.6368 25.8936 27.355 19.6271 35.0053 14.6676C36.2924 13.8335 37.6036 13.0386 38.9391 12.2827C39.6122 11.9015 40.2882 11.5252 40.9759 11.1722C41.65 10.8259 42.3657 10.5146 43.1358 10.503C45.7564 10.4622 47.1133 13.4301 48.0454 15.4271C48.3383 16.0555 48.6347 16.6821 48.9347 17.3067C50.0685 19.678 51.2459 22.0277 52.467 24.3558C53.2206 25.7932 53.9907 27.2221 54.7773 28.6427C57.2253 33.0663 59.8271 37.4004 62.5829 41.6449C66.2336 47.2673 69.8551 52.2341 74.0139 57.4918C74.1284 57.6373 73.9238 57.8448 73.8083 57.6974Z" fill="#E4E4E4"/>
<path d="M25.9186 20.2474C25.7664 20.0776 25.6151 19.9079 25.4618 19.7382C24.2534 18.4017 22.9567 17.0807 21.2972 16.3145C20.5059 15.9376 19.6421 15.7374 18.7658 15.7277C17.8599 15.7306 16.9744 15.9682 16.1374 16.3009C15.7417 16.459 15.3547 16.6384 14.9736 16.8295C14.5381 17.0487 14.1103 17.2824 13.6846 17.5181C12.8854 17.9604 12.0965 18.422 11.3181 18.9031C9.76916 19.8604 8.26875 20.8907 6.81685 21.9941C6.06419 22.5664 5.32708 23.1573 4.60549 23.7671C3.93434 24.3335 3.27676 24.9151 2.63277 25.5119C2.49505 25.6389 2.28942 25.4333 2.42714 25.3063C2.59687 25.1482 2.76854 24.9911 2.94021 24.8359C3.42515 24.3975 3.91786 23.9675 4.41833 23.5459C5.33096 22.7758 6.26722 22.0355 7.22711 21.3249C8.71977 20.2192 10.2638 19.1886 11.8592 18.2329C12.6565 17.7557 13.4647 17.2986 14.2839 16.8615C14.5313 16.7296 14.7815 16.6006 15.0347 16.4784C15.609 16.1887 16.2058 15.9458 16.8192 15.752C17.6882 15.4709 18.6075 15.3805 19.5145 15.4872C20.3903 15.6146 21.2341 15.9065 22.0013 16.3475C23.6307 17.2582 24.8944 18.6665 26.1243 20.0408C26.2484 20.1804 26.0438 20.387 25.9186 20.2474Z" fill="#E4E4E4"/>
<path d="M59.3042 34.097L63.2087 32.669L65.1472 31.9599C65.7786 31.729 66.4084 31.4661 67.0611 31.3008C67.6283 31.1388 68.2305 31.1464 68.7934 31.3228C69.2953 31.5086 69.7548 31.7935 70.1445 32.1604C70.5426 32.527 70.913 32.9226 71.2527 33.3439C71.6748 33.8511 72.0906 34.3637 72.5083 34.8745C74.2322 36.9828 75.9448 39.1002 77.6462 41.2267C79.3475 43.3533 81.0374 45.4888 82.716 47.6334C84.3987 49.7833 86.0697 51.9421 87.7293 54.1099C87.9326 54.3755 88.1357 54.6412 88.3386 54.907C88.4508 55.0539 88.7036 54.9091 88.5899 54.7602C86.9181 52.5705 85.2347 50.3899 83.5396 48.2182C81.8404 46.0413 80.1294 43.8737 78.4067 41.7152C76.684 39.5569 74.9497 37.4078 73.2037 35.2682C72.7687 34.7351 72.333 34.2027 71.8966 33.6708C71.5285 33.2221 71.1645 32.7686 70.7607 32.351C70.0196 31.5845 69.0936 30.9071 67.9852 30.8887C67.3335 30.8779 66.7028 31.0847 66.0974 31.3038C65.4446 31.5399 64.7934 31.7805 64.1415 32.0189L60.2098 33.457L59.2269 33.8165C59.0524 33.8803 59.1278 34.1616 59.3042 34.097L59.3042 34.097Z" fill="#E4E4E4"/>
<path d="M20.7832 17.9962C18.7991 16.9765 16.2581 17.1762 14.4348 18.4502C17.9126 19.0502 21.3523 19.853 24.7364 20.8546C23.3311 20.031 22.2319 18.7408 20.7832 17.9962Z" fill="#F2F2F2"/>
<path d="M14.4154 18.4467L14.0334 18.7572C14.1627 18.6485 14.297 18.5466 14.435 18.4502C14.4284 18.4491 14.4219 18.4478 14.4154 18.4467Z" fill="#F2F2F2"/>
<path d="M69.9974 34.1113C69.6131 33.6435 69.1975 33.1536 68.6227 32.9636L68.0859 32.9847C72.1716 40.2043 77.6896 46.5127 84.3013 51.5227C79.5333 45.7189 74.7654 39.9151 69.9974 34.1113Z" fill="#F2F2F2"/>
<path d="M36.6217 30.2519C36.8701 31.1543 37.4297 31.9397 38.2014 32.4693C38.4998 32.6724 38.8528 32.8673 38.9549 33.2135C39.0086 33.4342 38.9755 33.6671 38.8624 33.8642C38.7496 34.0587 38.6123 34.2379 38.4539 34.3975L38.4395 34.4517C37.6991 34.0129 36.9947 33.4579 36.5857 32.7006C36.1767 31.9433 36.1196 30.9508 36.6218 30.2519" fill="#F2F2F2"/>
<path d="M61.2726 51.7288C61.521 52.6312 62.0806 53.4167 62.8523 53.9462C63.1507 54.1494 63.5037 54.3442 63.6058 54.6905C63.6594 54.9112 63.6264 55.1441 63.5133 55.3411C63.4005 55.5356 63.2632 55.7149 63.1048 55.8745L63.0904 55.9286C62.3499 55.4899 61.6455 54.9348 61.2365 54.1776C60.8275 53.4203 60.7704 52.4278 61.2726 51.7288" fill="#F2F2F2"/>
<path d="M12.0768 50.2477C12.3252 51.1501 12.8848 51.9355 13.6565 52.465C13.9549 52.6682 14.3079 52.8631 14.4099 53.2093C14.4636 53.43 14.4306 53.6629 14.3175 53.8599C14.2047 54.0544 14.0674 54.2337 13.909 54.3933L13.8946 54.4475C13.1541 54.0087 12.4497 53.4537 12.0407 52.6964C11.6317 51.9391 11.5746 50.9466 12.0768 50.2477" fill="#F2F2F2"/>
<path d="M68.6891 10.7914C71.6691 10.7914 74.0848 8.37564 74.0848 5.39569C74.0848 2.41573 71.6691 0 68.6891 0C65.7092 0 63.2935 2.41573 63.2935 5.39569C63.2935 8.37564 65.7092 10.7914 68.6891 10.7914Z" fill="#F2C94C"/>
<path d="M78.4263 1.25586C75.8113 0.902396 72.8259 2.31581 72.1481 4.86605C71.9773 4.41262 71.6668 4.02523 71.2614 3.75984C70.856 3.49444 70.3768 3.3648 69.8929 3.38963C69.409 3.41446 68.9455 3.59248 68.5694 3.89798C68.1933 4.20347 67.924 4.62062 67.8005 5.08915L68.0999 5.30357C73.7038 6.5154 79.5046 6.48918 85.0973 5.22672C83.2783 3.31507 81.0413 1.60932 78.4263 1.25586Z" fill="#F0F0F0"/>
<path d="M67.2117 8.45011C64.5967 8.09665 61.6113 9.51007 60.9335 12.0603C60.7627 11.6069 60.4522 11.2195 60.0468 10.9541C59.6414 10.6887 59.1622 10.5591 58.6783 10.5839C58.1944 10.6087 57.7309 10.7867 57.3548 11.0922C56.9787 11.3977 56.7094 11.8149 56.5859 12.2834L56.8853 12.4978C62.4892 13.7097 68.29 13.6834 73.8827 12.421C72.0637 10.5093 69.8267 8.80357 67.2117 8.45011Z" fill="#F0F0F0"/>
<path d="M27.8236 44.4181C27.787 44.311 27.7253 44.2142 27.6437 44.1357C27.6136 44.1077 27.5811 44.0826 27.5464 44.0605C27.2703 43.8765 26.8577 43.8352 26.5953 44.0605C26.5689 44.0835 26.5444 44.1086 26.5223 44.1357C26.444 44.2319 26.3636 44.3261 26.2811 44.4181C26.1457 44.5726 26.0071 44.7218 25.8621 44.8667C25.8209 44.9069 25.7796 44.9482 25.7373 44.9884C25.7129 45.0127 25.6886 45.036 25.6643 45.0593C25.5712 45.1482 25.476 45.2338 25.3797 45.3185C25.3289 45.364 25.2781 45.4084 25.2263 45.4518C25.149 45.5163 25.0718 45.5809 24.9935 45.6433C24.9861 45.6486 24.9787 45.6539 24.9713 45.6602C24.9692 45.6613 24.9681 45.6634 24.966 45.6644C24.9649 45.6644 24.9639 45.6644 24.9628 45.6666C24.96 45.6677 24.9574 45.6695 24.9554 45.6719C24.9322 45.6877 24.9163 45.6983 24.9046 45.7078C24.9089 45.7057 24.9131 45.7025 24.9173 45.7004C24.8983 45.7152 24.8782 45.73 24.8592 45.7449C24.674 45.8813 24.4846 46.0125 24.291 46.1352C23.812 46.4418 23.3089 46.709 22.7866 46.934C22.7517 46.9478 22.7157 46.9626 22.6797 46.9763C21.3122 47.5366 19.8288 47.7552 18.3579 47.6132C18.2076 47.6016 18.0574 47.5857 17.9072 47.5656C17.7337 47.5402 17.5612 47.5096 17.3898 47.4746C16.7373 47.3445 16.0989 47.1517 15.4833 46.8991C14.7134 46.5465 13.981 46.1169 13.2976 45.6168C13.1918 45.5417 13.0849 45.4666 12.9781 45.3936C13.0997 45.0953 13.2193 44.7969 13.3357 44.4964C13.3938 44.3515 13.4499 44.2065 13.5049 44.0605C13.9376 42.9359 14.3439 41.8007 14.7332 40.6613C15.1268 39.507 15.4982 38.3461 15.8473 37.1784C15.8833 37.0599 15.9182 36.9414 15.952 36.8229C16.1351 36.2061 16.3107 35.5879 16.4789 34.9683C16.4948 34.908 16.5117 34.8487 16.5265 34.7884C16.5752 34.6107 16.6228 34.4329 16.6693 34.2552C16.7751 33.8542 16.536 33.375 16.115 33.2787C15.9122 33.2267 15.6972 33.2555 15.5153 33.3589C15.3333 33.4623 15.1986 33.6323 15.1395 33.8331C15.094 34.0045 15.0485 34.1748 15.002 34.3462C14.7787 35.1746 14.5439 36.0002 14.2974 36.8229C14.2614 36.9414 14.2254 37.0599 14.1894 37.1784C13.6456 38.9706 13.0486 40.7448 12.3983 42.5011C12.32 42.7137 12.2406 42.9257 12.1602 43.1369C12.1211 43.2406 12.082 43.3443 12.0417 43.448C11.9645 43.6522 11.8852 43.8564 11.8058 44.0605C11.7603 44.1801 11.7138 44.2997 11.6672 44.4181C11.6365 44.4933 11.6069 44.5684 11.5773 44.6424C11.2756 44.5341 10.9631 44.4589 10.6452 44.4181L10.5944 44.4118C10.348 44.3821 10.0987 44.3843 9.85279 44.4181C9.48473 44.4611 9.13059 44.5844 8.81542 44.7792C8.50024 44.9741 8.23172 45.2359 8.02884 45.546C7.52418 46.3405 7.53053 47.4768 8.23832 48.1518C8.96726 48.8468 10.0707 48.8416 10.9288 48.4067C11.3835 48.1607 11.7668 47.8014 12.0417 47.3636C12.1471 47.2048 12.2438 47.0406 12.3316 46.8716C12.3539 46.8864 12.3761 46.9012 12.3983 46.9171C12.4829 46.9763 12.5676 47.0366 12.6511 47.0959C13.1381 47.4487 13.6513 47.7638 14.1863 48.0385C15.3365 48.6104 16.5746 48.9848 17.849 49.1462C17.8776 49.1494 17.9051 49.1537 17.9336 49.1568C18.0743 49.1748 18.2161 49.1886 18.3579 49.2002C20.3915 49.3535 22.4277 48.9373 24.2381 47.9983C24.3915 47.919 24.5435 47.8358 24.6941 47.7487C24.9279 47.6132 25.1564 47.4694 25.3797 47.317C25.5013 47.2345 25.6198 47.1509 25.7373 47.0631C26.2505 46.6851 26.7288 46.262 27.1666 45.7988C27.3327 45.6242 27.4917 45.444 27.6437 45.2582C27.7875 45.1061 27.8703 44.9066 27.8765 44.6974C27.8757 44.6019 27.8578 44.5073 27.8236 44.4181V44.4181ZM10.3045 46.9382C10.3268 46.9224 10.349 46.9055 10.3701 46.8885C10.3638 46.9044 10.3331 46.9224 10.3046 46.9382H10.3045ZM10.6442 46.5965C10.6198 46.624 10.5976 46.6515 10.5733 46.679C10.4992 46.7619 10.4197 46.8397 10.3352 46.9118C10.3236 46.9224 10.3109 46.933 10.2982 46.9425C10.2981 46.9425 10.2979 46.9425 10.2978 46.9426C10.2977 46.9426 10.2975 46.9427 10.2974 46.9428C10.2973 46.9429 10.2973 46.943 10.2972 46.9431C10.2972 46.9433 10.2971 46.9434 10.2971 46.9435C10.2819 46.9504 10.267 46.9581 10.2527 46.9668C10.2072 46.9943 10.1607 47.0197 10.1131 47.043C10.0198 47.0773 9.92394 47.1038 9.82635 47.1223C9.75135 47.1278 9.67608 47.1285 9.601 47.1245H9.59888C9.54706 47.113 9.49586 47.0988 9.44547 47.0821C9.42008 47.0694 9.39575 47.0546 9.37141 47.0398C9.36189 47.0314 9.35342 47.0229 9.34814 47.0176C9.3378 47.0082 9.32825 46.9979 9.31958 46.9869C9.31958 46.9868 9.31955 46.9866 9.3195 46.9865C9.31945 46.9864 9.31937 46.9863 9.31928 46.9862C9.31918 46.9861 9.31906 46.986 9.31893 46.9859C9.3188 46.9859 9.31866 46.9859 9.31852 46.9859C9.30688 46.9647 9.29418 46.9435 9.28255 46.9224C9.28195 46.9218 9.28157 46.9211 9.28149 46.9203C9.27303 46.8938 9.26562 46.8663 9.25927 46.8388C9.25698 46.7905 9.25733 46.7421 9.26033 46.6939C9.27453 46.6263 9.29362 46.5598 9.31746 46.495C9.33888 46.449 9.36327 46.4045 9.39046 46.3617C9.39258 46.3574 9.40316 46.3405 9.4148 46.3214C9.41585 46.3204 9.41585 46.3204 9.41585 46.3193C9.43172 46.3013 9.44759 46.2823 9.46452 46.2654C9.49309 46.2336 9.52377 46.2061 9.55445 46.1776C9.61412 46.1385 9.67593 46.1028 9.7396 46.0707C9.8406 46.0348 9.94424 46.0069 10.0496 45.9871C10.2049 45.9748 10.3611 45.9762 10.5162 45.9914C10.6631 46.0168 10.808 46.0526 10.9499 46.0982C10.8639 46.2652 10.766 46.4257 10.6569 46.5785C10.6526 46.5849 10.6484 46.5912 10.6442 46.5965V46.5965ZM9.46769 46.2484C9.45837 46.2634 9.44736 46.2772 9.43489 46.2897C9.44329 46.2741 9.45439 46.2601 9.46769 46.2484V46.2484Z" fill="#3F3D56"/>
<path d="M24.6434 33.613C24.6339 33.9452 24.6243 34.2774 24.6148 34.6096C24.5947 35.347 24.5739 36.0848 24.5524 36.8229C24.5302 37.6534 24.5069 38.4836 24.4826 39.3134C24.4709 39.7419 24.4589 40.1704 24.4466 40.5988C24.4138 41.7531 24.3814 42.907 24.3493 44.0606C24.3461 44.1801 24.3419 44.2986 24.3387 44.4181C24.3228 44.9905 24.3069 45.5629 24.2911 46.1352C24.2731 46.7563 24.2555 47.3773 24.2382 47.9983C24.2255 48.4639 24.2124 48.9297 24.199 49.3959C24.1038 52.7741 24.0086 56.1522 23.9134 59.5303C23.9094 59.7395 23.8245 59.939 23.6765 60.0869C23.5286 60.2349 23.3291 60.3198 23.1199 60.3238C22.91 60.3221 22.7091 60.238 22.5607 60.0895C22.4122 59.9411 22.3281 59.7402 22.3264 59.5303C22.3793 57.6302 22.4329 55.7301 22.4872 53.8299C22.5348 52.1118 22.5832 50.3936 22.6322 48.6754C22.648 48.1094 22.6639 47.5431 22.6798 46.9763C22.7041 46.1236 22.7281 45.2709 22.7517 44.4181C22.7549 44.2986 22.7591 44.1801 22.7623 44.0606C22.7644 43.9558 22.7676 43.8521 22.7708 43.7474C22.8173 42.0917 22.8639 40.4356 22.9104 38.7791C22.9295 38.1274 22.9478 37.4753 22.9654 36.8229C22.9866 36.0792 23.0078 35.3358 23.0289 34.5927C23.0384 34.2658 23.0469 33.9399 23.0564 33.613C23.0604 33.4038 23.1453 33.2043 23.2933 33.0564C23.4412 32.9084 23.6407 32.8236 23.8499 32.8195C24.0598 32.8212 24.2607 32.9054 24.4091 33.0538C24.5576 33.2023 24.6417 33.4031 24.6434 33.613V33.613Z" fill="#3F3D56"/>
<path d="M68.1715 33.8332C67.3394 36.9838 66.3449 40.0893 65.1921 43.1372C64.8739 43.9779 64.5485 44.8169 64.2006 45.6459L64.2806 45.4563C64.1253 45.8511 63.927 46.2276 63.6892 46.579C63.673 46.6017 63.6566 46.6241 63.6398 46.6464C63.722 46.5412 63.7376 46.5205 63.6867 46.584C63.6598 46.6158 63.6332 46.6477 63.6055 46.6788C63.5314 46.7617 63.4519 46.8395 63.3675 46.9119C63.3463 46.93 63.3247 46.9478 63.3028 46.9652L63.402 46.8881C63.3905 46.9153 63.3097 46.9513 63.2845 46.9667C63.203 47.0159 63.1179 47.059 63.0301 47.0956L63.2196 47.0156C63.0756 47.0736 62.9254 47.1148 62.772 47.1384L62.9829 47.1101C62.8322 47.1309 62.6794 47.1325 62.5282 47.1149L62.7391 47.1433C62.6155 47.1263 62.4944 47.0937 62.3789 47.0463L62.5685 47.1263C62.5068 47.0994 62.4475 47.0677 62.3909 47.0314C62.3621 47.0127 62.2739 46.9459 62.3893 47.034C62.5092 47.1257 62.4047 47.0419 62.38 47.0176C62.3594 46.9973 62.3409 46.9752 62.3208 46.9546C62.2275 46.8589 62.4262 47.1193 62.3628 47.0074C62.3289 46.9513 62.2979 46.8935 62.2699 46.8342L62.3498 47.0237C62.3134 46.9335 62.2876 46.8394 62.2728 46.7432L62.3012 46.9542C62.286 46.8346 62.2859 46.7136 62.3008 46.5939L62.2725 46.8049C62.2919 46.6714 62.3272 46.5406 62.3777 46.4155L62.2978 46.6051C62.333 46.5209 62.3746 46.4396 62.4224 46.3619C62.4444 46.3217 62.4702 46.2838 62.4995 46.2486C62.5047 46.2502 62.3652 46.4086 62.4392 46.3286C62.4586 46.3077 62.4767 46.2857 62.4962 46.265C62.5276 46.2318 62.5612 46.2014 62.5942 46.17C62.7047 46.0647 62.4395 46.2722 62.567 46.1889C62.6595 46.1281 62.7568 46.0751 62.8579 46.0303L62.6684 46.1103C62.8378 46.0407 63.0153 45.9931 63.1968 45.9685L62.9859 45.9969C63.2132 45.9707 63.4428 45.9734 63.6694 46.005L63.4585 45.9766C63.7454 46.0201 64.0259 46.099 64.2934 46.2115L64.1039 46.1315C64.6741 46.3763 65.1791 46.7397 65.6832 47.0961C66.1701 47.4487 66.6832 47.7637 67.2179 48.0384C68.3682 48.6104 69.6065 48.9849 70.8809 49.1465C72.7086 49.3704 74.5633 49.1317 76.2747 48.4524C77.9862 47.773 79.4997 46.6747 80.6762 45.2583C80.8198 45.106 80.9025 44.9063 80.9086 44.6972C80.9071 44.487 80.8238 44.2858 80.6762 44.1361C80.3851 43.8689 79.8352 43.7934 79.5541 44.1361C79.2876 44.4614 79.0012 44.7697 78.6964 45.0594C78.5541 45.1944 78.408 45.3252 78.2582 45.4519C78.1726 45.5242 78.0858 45.5952 77.9978 45.6647C77.9562 45.6976 77.8266 45.7851 78.0256 45.6438C77.98 45.6762 77.9362 45.7115 77.8912 45.7448C77.2249 46.236 76.5029 46.6467 75.7401 46.9683L75.9297 46.8883C75.1112 47.2317 74.2516 47.4672 73.3724 47.589L73.5834 47.5606C72.6789 47.6796 71.7627 47.6782 70.8587 47.5566L71.0696 47.5849C70.1657 47.4608 69.2818 47.22 68.4398 46.8687L68.6293 46.9487C67.8168 46.5892 67.0458 46.1425 66.3297 45.6165C65.957 45.3406 65.564 45.0932 65.154 44.8766C64.6763 44.6326 64.1591 44.4754 63.6265 44.4123C62.6279 44.2948 61.6103 44.6837 61.0613 45.5465C60.556 46.3405 60.5625 47.4766 61.2701 48.1518C61.9988 48.8471 63.1023 48.8412 63.9611 48.4063C64.7882 47.9874 65.2849 47.1171 65.6343 46.2965C66.4205 44.4498 67.1165 42.5604 67.765 40.6614C68.4066 38.7826 68.9885 36.8848 69.5106 34.968C69.5752 34.7306 69.6389 34.493 69.7017 34.2551C69.8076 33.8543 69.5683 33.3749 69.1475 33.279C68.9447 33.2268 68.7296 33.2554 68.5475 33.3588C68.3654 33.4622 68.2305 33.6323 68.1714 33.8332L68.1715 33.8332Z" fill="#3F3D56"/>
<path d="M76.0888 33.613L75.8032 43.7477L75.5191 53.8296L75.3584 59.5304C75.3602 59.7402 75.4444 59.941 75.5928 60.0895C75.7412 60.2379 75.942 60.3221 76.1519 60.3238C76.3611 60.3198 76.5605 60.2349 76.7085 60.087C76.8564 59.939 76.9413 59.7395 76.9454 59.5304L77.231 49.3957L77.5151 39.3137L77.6757 33.613C77.674 33.4031 77.5898 33.2023 77.4414 33.0539C77.2929 32.9054 77.0922 32.8213 76.8823 32.8195C76.6731 32.8235 76.4736 32.9084 76.3257 33.0564C76.1777 33.2043 76.0928 33.4038 76.0888 33.613V33.613Z" fill="#3F3D56"/>
<path d="M47.119 53.3369C46.8088 54.7206 46.0658 55.9695 44.9977 56.9023C44.9194 56.97 44.8411 57.0356 44.7597 57.1001C44.5618 57.1181 44.3654 57.1365 44.1704 57.1551C44.0085 57.17 43.8488 57.1858 43.6901 57.2006L43.6615 57.2038L43.6414 57.0303L43.561 56.3278C43.2491 55.8186 43.0557 55.2457 42.9953 54.6516C42.9349 54.0574 43.0089 53.4573 43.2119 52.8957C43.4912 52.1424 43.9969 51.477 44.4941 50.8168C45.1808 49.9048 45.8483 49.0034 45.8727 47.8915C46.2105 48.3239 46.4914 48.7978 46.7085 49.3018C46.5037 49.3982 46.3197 49.5337 46.1668 49.7006C46.1234 49.7482 46.08 49.8149 46.1097 49.872C46.135 49.9207 46.1985 49.9323 46.2535 49.9387C46.3858 49.9524 46.5191 49.9662 46.6513 49.9799C46.7571 49.9916 46.8629 50.0022 46.9687 50.0138C47.0967 50.4339 47.1835 50.8655 47.2279 51.3024C47.2992 51.9821 47.2625 52.6687 47.119 53.3369V53.3369Z" fill="url(#paint0_linear_403_8)"/>
<path d="M50.6316 50.5639C50.0074 51.0178 49.6424 51.6706 49.3589 52.39C49.0683 52.483 48.8069 52.65 48.6003 52.8746C48.5569 52.9222 48.5136 52.9888 48.5432 53.046C48.5686 53.0946 48.6321 53.1063 48.6871 53.1126C48.8193 53.1264 48.9526 53.1401 49.0849 53.1539C48.8013 54.0045 48.5411 54.8847 48.0396 55.6031C47.7061 56.0774 47.2714 56.4716 46.7668 56.7573C46.6293 56.8357 46.4873 56.906 46.3415 56.9679C45.8041 57.0091 45.2769 57.0532 44.7599 57.1001C44.562 57.1181 44.3656 57.1365 44.1706 57.1551C44.0087 57.17 43.8489 57.1858 43.6902 57.2006C43.6892 57.1425 43.6892 57.0843 43.6902 57.0261C43.7237 55.476 44.2939 53.9855 45.3037 52.809C45.3513 52.754 45.3999 52.7 45.4497 52.646C45.9612 52.0997 46.5628 51.6452 47.2281 51.3024C48.2765 50.7573 49.4516 50.5023 50.6316 50.5639V50.5639Z" fill="#8D58A0"/>
<path d="M44.3535 56.6124L44.2319 56.9721L44.1705 57.1551C44.0086 57.17 43.8489 57.1858 43.6902 57.2006L43.6616 57.2038C43.486 57.2218 43.3114 57.2398 43.1368 57.2578C43.0914 57.2049 43.0459 57.1509 43.0014 57.0959C41.8971 55.7586 41.367 54.0386 41.527 52.3117C41.687 50.5848 42.524 48.9915 43.8552 47.8799C43.7156 48.6109 43.8785 49.3113 44.1462 50.0064C44.1176 50.018 44.0901 50.0297 44.0636 50.0424C43.8588 50.1388 43.6748 50.2743 43.522 50.4412C43.4786 50.4888 43.4352 50.5555 43.4648 50.6126C43.4902 50.6613 43.5537 50.6729 43.6087 50.6793C43.741 50.693 43.8743 50.7068 44.0065 50.7205C44.1123 50.7322 44.2181 50.7427 44.3239 50.7544C44.3736 50.7597 44.4234 50.765 44.4731 50.7702C44.4805 50.7861 44.4868 50.8009 44.4942 50.8168C44.7958 51.4706 45.1206 52.1276 45.3036 52.809C45.3495 52.9799 45.3855 53.1534 45.4115 53.3284C45.493 53.9201 45.4402 54.5226 45.257 55.0911C45.0739 55.6596 44.7651 56.1795 44.3535 56.6124V56.6124Z" fill="#219653"/>
<path d="M55.003 41.2675C54.0922 39.491 52.6811 37.9962 51.0216 36.8977C49.3567 35.8008 47.4462 35.1327 45.4606 34.9532C45.2003 34.9295 44.9393 34.9157 44.6778 34.9116C44.3687 34.907 39.7194 36.248 38.162 37.3431C36.6054 38.4248 35.3249 39.8572 34.4238 41.5249C33.5243 43.2017 33.0819 45.0857 33.141 46.9876C33.2181 48.901 33.7514 50.7682 34.6965 52.4337C35.6287 54.0937 36.9523 55.5009 38.5522 56.5329C40.1749 57.5683 41.805 60.3136 43.7209 60.4105C45.6513 60.5082 47.8527 57.9185 49.6133 57.1322C51.3739 56.3393 52.896 55.0989 54.0278 53.5345C55.1276 52.0014 55.8391 50.2244 56.1013 48.356C56.3736 46.4428 56.2467 44.4697 55.5933 42.6412C55.4257 42.1713 55.2285 41.7125 55.003 41.2675C54.8147 40.8967 54.2628 40.7602 53.9173 40.9829C53.7394 41.0925 53.6105 41.2665 53.5574 41.4687C53.5044 41.6708 53.5314 41.8857 53.6327 42.0685C53.7432 42.2863 53.8461 42.5077 53.9411 42.7327L53.8611 42.5431C54.2208 43.408 54.4654 44.3164 54.5886 45.245L54.5603 45.0341C54.6914 46.0415 54.689 47.0618 54.5533 48.0686L54.5816 47.8577C54.4445 48.8644 54.1758 49.8488 53.7824 50.7855L53.8624 50.596C53.66 51.074 53.4241 51.537 53.1565 51.9818C53.0209 52.2065 52.877 52.4259 52.7248 52.64C52.658 52.734 52.5891 52.8263 52.5197 52.9184C52.4291 53.0385 52.6431 52.7615 52.5495 52.8793C52.5336 52.8994 52.5177 52.9195 52.5017 52.9395C52.4537 52.9996 52.4049 53.0591 52.3555 53.1181C52.0257 53.5116 51.6657 53.8789 51.2789 54.2166C51.1825 54.3007 51.0846 54.3829 50.985 54.4633C50.9354 54.5033 50.8864 54.545 50.8347 54.5823C50.8367 54.5808 51.0018 54.4554 50.904 54.5282C50.8733 54.5511 50.8428 54.5743 50.812 54.5972C50.6068 54.7492 50.3961 54.8935 50.18 55.0301C49.6824 55.3436 49.1603 55.6165 48.6189 55.8461L48.8084 55.7661C47.8744 56.1593 46.8928 56.4279 45.8887 56.5651L46.0997 56.5367C45.0961 56.6723 44.079 56.6741 43.075 56.5421L43.286 56.5704C42.3734 56.4479 41.4809 56.2066 40.6309 55.8526L40.8205 55.9326C40.3282 55.7248 39.8535 55.4774 39.4011 55.193C39.1772 55.0519 38.9591 54.9021 38.7469 54.7436C38.7166 54.721 38.6866 54.6981 38.6564 54.6753C38.5596 54.6022 38.726 54.7293 38.7273 54.7301C38.671 54.6897 38.6168 54.6465 38.5649 54.6006C38.4624 54.5171 38.3615 54.4317 38.2622 54.3443C37.8648 53.9944 37.4938 53.6157 37.152 53.2113C37.0665 53.1102 36.9828 53.0075 36.9009 52.9034C36.8654 52.8583 36.8007 52.7669 36.9436 52.9593C36.9248 52.934 36.9053 52.9092 36.8863 52.884C36.8407 52.8235 36.7957 52.7626 36.7514 52.7012C36.596 52.4862 36.4483 52.2659 36.3083 52.0404C35.9919 51.5298 35.7158 50.9954 35.4825 50.4419L35.5625 50.6315C35.1807 49.723 34.9196 48.7685 34.7859 47.7922L34.8142 48.0031C34.6936 47.1032 34.6919 46.1913 34.8091 45.2909L34.7808 45.5018C34.901 44.6299 35.1355 43.7776 35.4785 42.967L35.3985 43.1566C35.6142 42.6491 35.8687 42.159 36.1597 41.6906C36.3054 41.4562 36.4598 41.2275 36.6229 41.0045C36.6599 40.9539 36.6974 40.9035 36.7353 40.8535C36.7695 40.8082 36.8638 40.6955 36.703 40.8946C36.7187 40.8751 36.7339 40.855 36.7495 40.8353C36.8389 40.7219 36.9306 40.6103 37.0245 40.5004C37.3797 40.0846 37.7645 39.6949 38.1759 39.3345C38.2799 39.2434 38.3855 39.1542 38.4927 39.0669C38.5415 39.0272 38.5905 38.988 38.6399 38.9492C38.6597 38.9336 38.6797 38.9184 38.6993 38.9028C38.488 39.0709 38.6406 38.9485 38.6886 38.9126C38.9096 38.747 39.1366 38.5896 39.3694 38.4406C39.887 38.1095 40.4316 37.8226 40.9973 37.5828L40.8077 37.6628C41.6287 37.318 45.2661 36.5044 45.9277 36.5932L45.7168 36.5648C46.6891 36.7006 47.6395 36.9632 48.5437 37.3459L48.3541 37.2659C48.8123 37.4604 49.2576 37.6841 49.6872 37.9355C49.9019 38.0613 50.1123 38.194 50.3185 38.3336C50.4161 38.3996 50.5127 38.4672 50.6082 38.5362C50.656 38.5707 50.7034 38.6055 50.7506 38.6408C50.7769 38.6604 50.8029 38.6802 50.8291 38.6998C50.939 38.7822 50.6776 38.5805 50.7929 38.6716C51.1786 38.9747 51.545 39.3017 51.8898 39.6506C52.0591 39.823 52.2227 40.001 52.3804 40.1844C52.4612 40.2785 52.5404 40.3739 52.618 40.4708C52.6566 40.5189 52.7878 40.6931 52.627 40.4798C52.6663 40.5319 52.706 40.5837 52.7449 40.6362C53.0792 41.0888 53.3761 41.5678 53.6327 42.0685C53.8224 42.4386 54.3719 42.5765 54.7183 42.3532C54.8964 42.2436 55.0253 42.0697 55.0783 41.8674C55.1314 41.6652 55.1044 41.4504 55.003 41.2675Z" fill="#3F3D56"/>
<path d="M45.7572 54.2167C45.6753 54.2204 45.5942 54.1989 45.525 54.1551C45.4557 54.1112 45.4016 54.0471 45.3699 53.9715C45.3383 53.8958 45.3307 53.8123 45.3481 53.7322C45.3656 53.652 45.4072 53.5792 45.4674 53.5236C45.4775 53.4835 45.4847 53.4547 45.4948 53.4146C45.4912 53.4059 45.4876 53.3972 45.4839 53.3885C45.1158 52.5106 42.7665 54.9578 42.665 55.7829C42.6202 56.1476 42.6391 56.5172 42.7207 56.8755C41.9598 55.2155 41.5646 53.4114 41.5621 51.5853C41.5619 51.1271 41.5874 50.6692 41.6383 50.2138C41.6804 49.8405 41.7389 49.4698 41.8136 49.1018C42.2215 47.1051 43.0972 45.2335 44.3688 43.6409C45.096 43.6815 45.7334 43.5707 45.7949 42.1613C45.8058 41.9106 45.9918 41.6935 46.0328 41.4465C45.9634 41.4556 45.8928 41.4613 45.8234 41.4659C45.8017 41.467 45.779 41.4682 45.7573 41.4693L45.7492 41.4697C45.6729 41.4731 45.5972 41.4544 45.5313 41.4158C45.4654 41.3772 45.412 41.3204 45.3776 41.2522C45.3433 41.184 45.3293 41.1073 45.3375 41.0314C45.3457 40.9554 45.3757 40.8835 45.4238 40.8242C45.4538 40.7873 45.4838 40.7504 45.5138 40.7136C45.5593 40.6566 45.606 40.6009 45.6515 40.544C45.6567 40.5386 45.6617 40.5329 45.6663 40.5269C45.7187 40.462 45.771 40.3983 45.8234 40.3334C45.7278 40.1851 45.5993 40.0608 45.4478 39.9703C44.9231 39.663 44.1992 39.8759 43.8202 40.3505C43.44 40.8251 43.3683 41.4909 43.5004 42.0839C43.6302 42.5885 43.845 43.0673 44.1355 43.4998C44.107 43.5362 44.0774 43.5715 44.049 43.6079C43.5288 44.2768 43.0755 44.995 42.6954 45.7522C42.8029 44.9123 41.4881 41.8792 40.9796 41.2367C40.3688 40.465 39.1164 40.8018 39.0088 41.7801C39.0078 41.7895 39.0067 41.799 39.0057 41.8085C39.0813 41.8511 39.1552 41.8963 39.2275 41.9441C39.3184 42.0049 39.3888 42.0916 39.4296 42.193C39.4703 42.2944 39.4794 42.4058 39.4558 42.5125C39.4321 42.6192 39.3768 42.7163 39.2971 42.791C39.2173 42.8657 39.1169 42.9146 39.0088 42.9313L38.9978 42.933C37.9868 44.3764 41.2277 48.1334 42.039 47.2899C41.6571 48.3719 41.4176 49.4991 41.3265 50.6429C41.2749 51.3177 41.2779 51.9956 41.3356 52.67L41.3322 52.6461C41.1519 51.1774 38.0597 48.9937 37.1567 49.1756C36.6365 49.2803 36.1242 49.2565 36.2032 49.7812C36.2044 49.7896 36.2057 49.798 36.207 49.8064C36.3472 49.8634 36.4836 49.9292 36.6156 50.0033C36.6911 50.0459 36.7651 50.0911 36.8374 50.1389C36.9283 50.1996 36.9987 50.2864 37.0394 50.3878C37.0801 50.4892 37.0893 50.6006 37.0656 50.7073C37.042 50.814 36.9867 50.9111 36.9069 50.9858C36.8272 51.0605 36.7267 51.1094 36.6187 51.1261L36.6076 51.1278C36.5997 51.1289 36.5928 51.13 36.5849 51.1312C36.1247 52.7146 39.5374 55.27 41.6121 54.4569H41.6133C41.8189 55.3504 42.1168 56.22 42.5022 57.0519H45.6777C45.6891 57.0166 45.6993 56.9802 45.7095 56.9449C45.4156 56.9634 45.1205 56.9458 44.8309 56.8926C45.0665 56.6035 45.3021 56.3121 45.5377 56.023C45.5429 56.0176 45.5479 56.0119 45.5525 56.0059C45.672 55.858 45.7926 55.7112 45.9121 55.5632L45.9122 55.563C45.9186 55.1095 45.8665 54.657 45.7573 54.2167L45.7572 54.2167ZM42.1209 47.0634L42.1226 47.0611L42.1209 47.0656V47.0634ZM41.4175 53.4041L41.3902 53.3426C41.3913 53.2982 41.3913 53.2539 41.3902 53.2083C41.3902 53.1958 41.3879 53.1833 41.3879 53.1708C41.3982 53.2493 41.4073 53.3278 41.4187 53.4064L41.4175 53.4041Z" fill="url(#paint1_linear_403_8)"/>
<path d="M10.0771 47.609C10.7198 47.609 11.2409 47.088 11.2409 46.4452C11.2409 45.8025 10.7198 45.2815 10.0771 45.2815C9.43437 45.2815 8.91333 45.8025 8.91333 46.4452C8.91333 47.088 9.43437 47.609 10.0771 47.609Z" fill="#3F3D56"/>
<path d="M24.0424 60.3047C24.6852 60.3047 25.2062 59.7837 25.2062 59.141C25.2062 58.4982 24.6852 57.9772 24.0424 57.9772C23.3997 57.9772 22.8787 58.4982 22.8787 59.141C22.8787 59.7837 23.3997 60.3047 24.0424 60.3047Z" fill="#3F3D56"/>
<path d="M77.0471 60.3047C77.6898 60.3047 78.2109 59.7837 78.2109 59.141C78.2109 58.4982 77.6898 57.9772 77.0471 57.9772C76.4043 57.9772 75.8833 58.4982 75.8833 59.141C75.8833 59.7837 76.4043 60.3047 77.0471 60.3047Z" fill="#3F3D56"/>
<path d="M79.9038 45.493C80.5465 45.493 81.0675 44.972 81.0675 44.3293C81.0675 43.6865 80.5465 43.1655 79.9038 43.1655C79.261 43.1655 78.74 43.6865 78.74 44.3293C78.74 44.972 79.261 45.493 79.9038 45.493Z" fill="#3F3D56"/>
<path d="M76.518 34.7017C77.1608 34.7017 77.6818 34.1806 77.6818 33.5379C77.6818 32.8952 77.1608 32.3741 76.518 32.3741C75.8753 32.3741 75.3542 32.8952 75.3542 33.5379C75.3542 34.1806 75.8753 34.7017 76.518 34.7017Z" fill="#3F3D56"/>
<path d="M27.9569 44.3293C27.9562 44.6265 27.8412 44.9122 27.6358 45.127C27.4304 45.3419 27.1502 45.4696 26.8533 45.4836C26.5563 45.4977 26.2654 45.397 26.0406 45.2025C25.8158 45.008 25.6743 44.7345 25.6456 44.4386C25.6168 44.1428 25.7029 43.8472 25.886 43.613C26.0691 43.3788 26.3353 43.224 26.6294 43.1806C26.9235 43.1372 27.223 43.2085 27.4659 43.3798C27.7089 43.551 27.8767 43.8092 27.9347 44.1007C27.9496 44.176 27.957 44.2526 27.9569 44.3293V44.3293Z" fill="#3F3D56"/>
<path d="M51.2324 38.0872C51.8751 38.0872 52.3962 37.5662 52.3962 36.9234C52.3962 36.2807 51.8751 35.7597 51.2324 35.7597C50.5896 35.7597 50.0686 36.2807 50.0686 36.9234C50.0686 37.5662 50.5896 38.0872 51.2324 38.0872Z" fill="#3F3D56"/>
<path d="M39.7006 36.9234C39.6999 37.2207 39.5849 37.5063 39.3795 37.7212C39.174 37.9361 38.8939 38.0637 38.5969 38.0778C38.3 38.0919 38.009 37.9912 37.7842 37.7967C37.5594 37.6022 37.418 37.3287 37.3892 37.0328C37.3605 36.7369 37.4465 36.4413 37.6297 36.2071C37.8128 35.973 38.0789 35.8182 38.373 35.7748C38.6671 35.7313 38.9666 35.8027 39.2096 35.9739C39.4526 36.1452 39.6204 36.4033 39.6783 36.6949C39.6933 36.7702 39.7007 36.8467 39.7006 36.9234V36.9234Z" fill="#3F3D56"/>
<path d="M24.6771 33.5379C24.6764 33.8352 24.5615 34.1208 24.356 34.3357C24.1506 34.5505 23.8704 34.6782 23.5735 34.6923C23.2765 34.7063 22.9856 34.6057 22.7608 34.4112C22.536 34.2166 22.3946 33.9432 22.3658 33.6473C22.337 33.3514 22.4231 33.0558 22.6062 32.8216C22.7894 32.5874 23.0555 32.4326 23.3496 32.3892C23.6437 32.3458 23.9432 32.4171 24.1862 32.5884C24.4291 32.7597 24.5969 33.0178 24.6549 33.3094C24.6698 33.3846 24.6773 33.4612 24.6771 33.5379V33.5379Z" fill="#3F3D56"/>
<path d="M63.3991 48.0322C64.0419 48.0322 64.5629 47.5112 64.5629 46.8684C64.5629 46.2257 64.0419 45.7047 63.3991 45.7047C62.7564 45.7047 62.2354 46.2257 62.2354 46.8684C62.2354 47.5112 62.7564 48.0322 63.3991 48.0322Z" fill="#3F3D56"/>
<path d="M45.0961 37.4524C46.031 37.4524 46.7888 36.6945 46.7888 35.7597C46.7888 34.8248 46.031 34.0669 45.0961 34.0669C44.1612 34.0669 43.4033 34.8248 43.4033 35.7597C43.4033 36.6945 44.1612 37.4524 45.0961 37.4524Z" fill="#3F3D56"/>
</g>
<defs>
<linearGradient id="paint0_linear_403_8" x1="45.1191" y1="47.8915" x2="45.1191" y2="57.2038" gradientUnits="userSpaceOnUse">
<stop stop-color="#2564AE"/>
<stop offset="1" stop-color="#8D58A0"/>
</linearGradient>
<linearGradient id="paint1_linear_403_8" x1="41.1139" y1="39.8266" x2="41.1139" y2="57.0519" gradientUnits="userSpaceOnUse">
<stop stop-color="#2564AE"/>
<stop offset="1" stop-color="#8D58A0"/>
</linearGradient>
<clipPath id="clip0_403_8">
<rect width="91" height="60.4262" fill="white"/>
</clipPath>
</defs>
</svg>
