<svg width="395" height="431" viewBox="0 0 395 431" fill="none" xmlns="http://www.w3.org/2000/svg">
<path d="M151.78 311.78H76.52V336.31H151.78V311.78Z" fill="#2564AE"/>
<path d="M88.7899 376.45L79.1499 322.61L109.68 321.12V376.45H130.57L151.46 316.99" stroke="#B3B3B3" stroke-miterlimit="10"/>
<path d="M124.16 370.82H95.1999C80.1225 370.82 67.8999 383.043 67.8999 398.12V402.98C67.8999 418.057 80.1225 430.28 95.1999 430.28H124.16C139.237 430.28 151.46 418.057 151.46 402.98V398.12C151.46 383.043 139.237 370.82 124.16 370.82Z" fill="#2564AE"/>
<path opacity="0.05" d="M122.54 370.82H98.4399C90.5624 370.844 83.0142 373.984 77.4439 379.554C71.8736 385.124 68.7337 392.672 68.71 400.55V400.55C68.71 401.23 68.71 401.89 68.79 402.55C69.3201 395.04 72.6713 388.009 78.1709 382.867C83.6705 377.725 90.9113 374.854 98.4399 374.83H122.54C130.069 374.854 137.309 377.725 142.809 382.867C148.309 388.009 151.66 395.04 152.19 402.55C152.19 401.89 152.27 401.22 152.27 400.55C152.246 392.672 149.106 385.124 143.536 379.554C137.966 373.984 130.418 370.844 122.54 370.82V370.82Z" fill="black"/>
<path d="M230.77 209.91C230.77 275.36 176.1 328.41 117.88 328.41C59.66 328.41 0 275.36 0 209.91C0 144.46 59.68 91.4501 117.89 91.4501C176.1 91.4501 230.77 144.45 230.77 209.91Z" fill="#2564AE"/>
<path d="M125.99 332.57H99.8003V341.72H125.99V332.57Z" fill="#2564AE"/>
<g opacity="0.2">
<path opacity="0.2" d="M117.89 91C116.5 91 115.12 91 113.73 91.1C170.36 93.55 222.46 145.61 222.46 209.5C222.46 273.39 170.36 325.45 113.77 327.9C115.16 327.96 116.55 328 117.93 328C176.14 328 230.82 274.95 230.82 209.5C230.82 144.05 176.1 91 117.89 91Z" fill="black"/>
</g>
<g opacity="0.2">
<path opacity="0.2" d="M6.67023 209.91C6.67023 145.4 64.6702 92.9101 122.05 91.4501C121.22 91.4501 120.39 91.4501 119.56 91.4501C61.3502 91.4501 1.68018 144.5 1.68018 209.95C1.68018 275.4 61.3402 328.45 119.55 328.45C120.38 328.45 121.21 328.45 122.04 328.45C64.6402 326.89 6.67023 274.45 6.67023 209.91Z" fill="white"/>
</g>
<path opacity="0.2" d="M76.5199 100.04C76.5199 100.04 -12.8701 202.22 76.5199 319.78L106.04 319.68C106.04 319.68 24.5499 222.56 102.3 92.6801L87.7699 95.9901L76.5199 100.04Z" fill="white"/>
<path d="M339.393 153.306H287.134V170.339H339.393V153.306Z" fill="#8D58A0"/>
<path d="M295.654 198.211L288.96 160.826L310.16 159.791V198.211H324.666L339.171 156.923" stroke="#B3B3B3" stroke-miterlimit="10"/>
<path d="M320.214 194.302H300.105C289.636 194.302 281.148 202.789 281.148 213.259V216.633C281.148 227.103 289.636 235.59 300.105 235.59H320.214C330.684 235.59 339.171 227.103 339.171 216.633V213.259C339.171 202.789 330.684 194.302 320.214 194.302Z" fill="#8D58A0"/>
<path opacity="0.05" d="M319.09 194.302H302.355C296.885 194.319 291.644 196.499 287.776 200.367C283.908 204.235 281.727 209.476 281.711 214.946V214.946C281.711 215.418 281.711 215.877 281.766 216.335C282.135 211.12 284.462 206.238 288.28 202.667C292.099 199.097 297.127 197.103 302.355 197.087H319.09C324.317 197.103 329.345 199.097 333.164 202.667C336.983 206.238 339.31 211.12 339.678 216.335C339.678 215.877 339.734 215.411 339.734 214.946C339.717 209.476 337.537 204.235 333.669 200.367C329.801 196.499 324.56 194.319 319.09 194.302V194.302Z" fill="black"/>
<path d="M394.243 82.569C394.243 128.016 356.281 164.853 315.854 164.853C275.427 164.853 234 128.016 234 82.569C234 37.1217 275.441 0.3125 315.861 0.3125C356.281 0.3125 394.243 37.1148 394.243 82.569Z" fill="#8D58A0"/>
<path d="M321.486 167.742H303.3V174.096H321.486V167.742Z" fill="#8D58A0"/>
<g opacity="0.2">
<path opacity="0.2" d="M315.861 0C314.896 0 313.937 -6.35829e-06 312.972 0.0694319C352.295 1.77067 388.472 37.9202 388.472 82.2843C388.472 126.648 352.295 162.798 313 164.499C313.965 164.541 314.93 164.569 315.889 164.569C356.309 164.569 394.277 127.732 394.277 82.2843C394.277 36.837 356.281 0 315.861 0Z" fill="black"/>
</g>
<g opacity="0.2">
<path opacity="0.2" d="M238.632 82.569C238.632 37.7744 278.906 1.3263 318.749 0.3125C318.173 0.3125 317.597 0.3125 317.02 0.3125C276.6 0.3125 235.167 37.1495 235.167 82.5968C235.167 128.044 276.593 164.881 317.013 164.881C317.59 164.881 318.166 164.881 318.742 164.881C278.885 163.798 238.632 127.384 238.632 82.569Z" fill="white"/>
</g>
<path opacity="0.2" d="M287.134 6.27728C287.134 6.27728 225.063 77.2293 287.134 158.861L307.632 158.791C307.632 158.791 251.047 91.353 305.035 1.16663L294.946 3.46503L287.134 6.27728Z" fill="white"/>
<path opacity="0.2" d="M341.122 5.17318C341.122 5.17318 403.193 77.2084 341.122 158.84L320.624 158.771C320.624 158.771 377.209 90.7211 323.221 0.555542L333.324 2.57619L341.122 5.17318Z" fill="white"/>
<path opacity="0.2" d="M154.27 98.45C154.27 98.45 243.66 202.19 154.27 319.75L124.75 319.65C124.75 319.65 206.24 221.65 128.49 91.8L143.04 94.71L154.27 98.45Z" fill="white"/>
</svg>
