<svg width="663" height="628" viewBox="0 0 663 628" fill="none" xmlns="http://www.w3.org/2000/svg">
<path d="M202.58 587.581C204.066 591.798 205.782 595.931 207.72 599.961V599.971C209.29 603.251 210.997 606.447 212.84 609.561H427.86V609.991C429.81 606.741 431.603 603.394 433.24 599.951C435.182 595.926 436.898 591.796 438.38 587.581H202.58ZM208 599.831V597.831H432.99V599.831H208ZM224.76 626.371H416.2C420.127 621.702 423.706 616.752 426.91 611.561H214.05C217.254 616.752 220.834 621.702 224.76 626.371V626.371Z" fill="#3F3D56"/>
<path d="M441.74 576.361C440.97 579.491 440.07 582.561 439.06 585.581H201.9C200.89 582.561 199.99 579.491 199.22 576.361H441.74Z" fill="#3F3D56"/>
<path d="M441.89 575.771V574.361H199.07V575.771C198.22 572.291 197.517 568.747 196.96 565.141H444C443.45 568.741 442.747 572.284 441.89 575.771Z" fill="#3F3D56"/>
<path d="M196.52 551.921V553.921H445.21C445.02 557.031 444.72 560.101 444.29 563.141H196.67C196.25 560.121 195.94 557.061 195.76 553.961C195.58 551.341 195.5 548.701 195.5 546.031C195.5 544.231 195.54 542.441 195.61 540.661V540.641C195.78 536.851 196.107 533.111 196.59 529.421V529.411C197.01 526.321 197.533 523.267 198.16 520.251H442.4V518.431C443.22 522.051 443.873 525.731 444.36 529.471H197.03V531.471H444.61C444.94 534.261 445.173 537.074 445.31 539.911L445.34 540.691H196.78V542.691H445.41C445.45 543.801 445.46 544.911 445.46 546.031C445.46 548.011 445.41 549.971 445.32 551.921H196.52Z" fill="#3F3D56"/>
<path d="M442.36 518.251H198.6C199.31 515.131 200.133 512.057 201.07 509.031H439.85V508.921C440.81 511.981 441.64 515.091 442.36 518.251Z" fill="#3F3D56"/>
<path d="M439.25 507.031H201.71C202.95 503.231 204.367 499.517 205.96 495.891V497.801H435V495.901C436.59 499.521 438.007 503.231 439.25 507.031Z" fill="#3F3D56"/>
<path d="M434.95 495.801H206C207.38 492.661 208.89 489.587 210.53 486.581H430.16V486.081C431.9 489.241 433.497 492.481 434.95 495.801Z" fill="#3F3D56"/>
<path d="M429.32 484.581H211.63C222.52 465.3 238.336 449.258 257.461 438.095C276.585 426.933 298.331 421.051 320.475 421.051C342.619 421.051 364.365 426.933 383.489 438.095C402.614 449.258 418.43 465.3 429.32 484.581V484.581Z" fill="#3F3D56"/>
<path opacity="0.5" d="M199.07 575.771C199.109 575.97 199.159 576.167 199.22 576.361H199.07V575.771Z" fill="black"/>
<path opacity="0.5" d="M441.89 575.771V576.361H441.74C441.801 576.167 441.851 575.97 441.89 575.771V575.771Z" fill="black"/>
<path opacity="0.5" d="M445.46 537.921V539.921H445.21C445.23 539.671 445.25 539.421 445.26 539.171C445.28 538.751 445.3 538.341 445.32 537.921H445.46Z" fill="black"/>
<path opacity="0.5" d="M445.46 526.691V528.691H445.41C445.4 528.021 445.37 527.361 445.34 526.691H445.46Z" fill="black"/>
<path opacity="0.5" d="M442.4 518.251V518.431C442.39 518.371 442.37 518.311 442.36 518.251H442.4Z" fill="black"/>
<path opacity="0.5" d="M205.96 495.801H206C205.991 495.832 205.977 495.863 205.96 495.891V495.801Z" fill="black"/>
<path opacity="0.5" d="M435 495.801V495.901C434.985 495.866 434.969 495.833 434.95 495.801H435Z" fill="black"/>
<path opacity="0.5" d="M422.249 473.358H218.71V475.358H422.249V473.358Z" fill="black"/>
<path opacity="0.5" d="M414.342 462.135H227.127V464.135H414.342V462.135Z" fill="black"/>
<path opacity="0.5" d="M402.354 450.912H238.605V452.912H402.354V450.912Z" fill="black"/>
<path opacity="0.5" d="M387.304 439.684L251.101 439.95L251.105 441.95L387.308 441.684L387.304 439.684Z" fill="black"/>
<path d="M302.358 480.361H242.674V612.609H302.358V480.361Z" fill="#E6E6E6"/>
<path d="M269.978 492.813H272.504C276.228 492.813 279.799 494.292 282.432 496.925C285.065 499.558 286.545 503.129 286.545 506.853V526.733H255.937V506.853C255.937 503.129 257.416 499.558 260.05 496.925C262.683 494.292 266.254 492.813 269.978 492.813V492.813Z" fill="#3F3D56"/>
<path d="M379.144 479.204C383.202 479.204 387.095 480.816 389.965 483.686C392.835 486.556 394.447 490.449 394.447 494.507V519.503H363.84V494.507C363.84 490.449 365.452 486.556 368.322 483.686C371.192 480.816 375.085 479.204 379.144 479.204Z" fill="#E6E6E6"/>
<path d="M437.298 530.216C437.298 531.409 437.232 532.601 437.099 533.787H320.48V527.155H437.15C437.247 528.17 437.296 529.191 437.298 530.216Z" fill="#E6E6E6"/>
<path d="M337.215 507.829L338.349 506.077C338.013 505.149 337.624 504.24 337.186 503.355L336.453 503.947L337.033 503.05C336.48 501.961 336.045 501.275 336.045 501.275C334.648 503.557 333.624 506.047 333.011 508.651L334.466 510.899L332.856 509.599C332.798 510.04 332.769 510.486 332.767 510.931C332.767 515.424 334.235 519.066 336.045 519.066C337.855 519.066 339.322 515.424 339.322 510.931C339.288 509.502 339.035 508.086 338.572 506.733L337.215 507.829Z" fill="#2564AE"/>
<path d="M345.239 511.724L347.28 511.287C347.699 510.393 348.067 509.475 348.383 508.539L347.446 508.44L348.49 508.216C348.869 507.055 349.047 506.262 349.047 506.262C346.445 506.888 343.961 507.925 341.686 509.333L341.125 511.951L340.906 509.893C340.553 510.165 340.217 510.458 339.901 510.772C336.724 513.949 335.187 517.562 336.466 518.842C337.746 520.122 341.359 518.584 344.536 515.407C345.523 514.373 346.345 513.193 346.974 511.909L345.239 511.724Z" fill="#2564AE"/>
<path d="M345.985 529.109C341.253 529.411 336.097 529.091 330.613 529.109V516.551C335.712 517.265 340.886 517.265 345.985 516.551V529.109Z" fill="#E6E6E6"/>
<path d="M414.244 507.829L415.377 506.077C415.041 505.149 414.653 504.24 414.214 503.355L413.481 503.947L414.061 503.05C413.508 501.961 413.073 501.275 413.073 501.275C411.676 503.557 410.653 506.047 410.04 508.651L411.495 510.899L409.884 509.599C409.827 510.04 409.797 510.486 409.796 510.931C409.796 515.424 411.263 519.066 413.073 519.066C414.883 519.066 416.35 515.424 416.35 510.931C416.316 509.502 416.064 508.086 415.601 506.733L414.244 507.829Z" fill="#2564AE"/>
<path d="M422.268 511.724L424.308 511.287C424.727 510.393 425.095 509.475 425.411 508.539L424.474 508.44L425.519 508.216C425.898 507.055 426.075 506.262 426.075 506.262C423.474 506.888 420.989 507.925 418.714 509.333L418.153 511.951L417.934 509.893C417.581 510.165 417.246 510.458 416.929 510.772C413.753 513.949 412.215 517.562 413.495 518.842C414.775 520.122 418.387 518.584 421.564 515.407C422.551 514.373 423.373 513.193 424.002 511.909L422.268 511.724Z" fill="#2564AE"/>
<path d="M423.013 529.109C418.281 529.411 413.126 529.091 407.641 529.109V516.551C412.74 517.265 417.914 517.265 423.013 516.551V529.109Z" fill="#E6E6E6"/>
<path d="M249.816 555.502C253.197 555.502 255.937 553.195 255.937 550.349C255.937 547.503 253.197 545.197 249.816 545.197C246.435 545.197 243.694 547.503 243.694 550.349C243.694 553.195 246.435 555.502 249.816 555.502Z" fill="#3F3D56"/>
<path d="M96 299.361C148.743 299.361 191.5 256.604 191.5 203.861C191.5 151.117 148.743 108.361 96 108.361C43.2568 108.361 0.5 151.117 0.5 203.861C0.5 256.604 43.2568 299.361 96 299.361Z" fill="#FF6584"/>
<path d="M499.391 327C589.689 327 662.891 253.799 662.891 163.5C662.891 73.2014 589.689 0 499.391 0C409.092 0 335.891 73.2014 335.891 163.5C335.891 253.799 409.092 327 499.391 327Z" fill="#2564AE"/>
<path opacity="0.2" d="M621.012 54.2949C636.263 89.9694 638.332 129.905 626.849 166.964C615.366 204.024 591.08 235.793 558.33 256.594C525.58 277.396 486.501 285.874 448.075 280.515C409.649 275.156 374.381 256.307 348.573 227.338C357.889 249.134 371.833 268.644 389.438 284.516C407.043 300.387 427.888 312.242 450.529 319.258C473.17 326.274 497.066 328.283 520.561 325.147C544.056 322.011 566.588 313.805 586.596 301.096C606.605 288.388 623.611 271.481 636.437 251.547C649.262 231.614 657.601 209.13 660.875 185.654C664.148 162.178 662.279 138.271 655.396 115.589C648.513 92.9067 636.781 71.9925 621.012 54.2949V54.2949Z" fill="black"/>
<path d="M499.84 163.5H500.289L508.374 627.049H491.306L499.84 163.5Z" fill="#3F3D56"/>
<path d="M529.61 415.993L525.844 408.839L498.817 423.068L502.583 430.222L529.61 415.993Z" fill="#3F3D56"/>
<path d="M473.044 621.973C473.044 621.973 473.734 607.504 487.891 609.185Z" fill="#3F3D56"/>
<path d="M469.044 608.204C472.957 608.204 476.129 605.031 476.129 601.118C476.129 597.205 472.957 594.033 469.044 594.033C465.131 594.033 461.958 597.205 461.958 601.118C461.958 605.031 465.131 608.204 469.044 608.204Z" fill="#2564AE"/>
<path d="M469.891 613.049H467.891V627.049H469.891V613.049Z" fill="#3F3D56"/>
<path d="M566.044 621.973C566.044 621.973 566.734 607.504 580.891 609.185Z" fill="#3F3D56"/>
<path d="M562.044 608.204C565.957 608.204 569.129 605.031 569.129 601.118C569.129 597.205 565.957 594.033 562.044 594.033C558.131 594.033 554.958 597.205 554.958 601.118C554.958 605.031 558.131 608.204 562.044 608.204Z" fill="#2564AE"/>
<path d="M562.891 613.049H560.891V627.049H562.891V613.049Z" fill="#3F3D56"/>
<path d="M119.044 621.973C119.044 621.973 119.734 607.504 133.891 609.185Z" fill="#3F3D56"/>
<path d="M115.044 608.204C118.957 608.204 122.129 605.031 122.129 601.118C122.129 597.205 118.957 594.033 115.044 594.033C111.131 594.033 107.958 597.205 107.958 601.118C107.958 605.031 111.131 608.204 115.044 608.204Z" fill="#2564AE"/>
<path d="M115.891 613.049H113.891V627.049H115.891V613.049Z" fill="#3F3D56"/>
<path d="M529.044 621.973C529.044 621.973 529.734 607.504 543.891 609.185Z" fill="#3F3D56"/>
<path d="M525.044 608.204C528.957 608.204 532.129 605.031 532.129 601.118C532.129 597.205 528.957 594.033 525.044 594.033C521.131 594.033 517.958 597.205 517.958 601.118C517.958 605.031 521.131 608.204 525.044 608.204Z" fill="#2564AE"/>
<path d="M525.891 613.049H523.891V627.049H525.891V613.049Z" fill="#3F3D56"/>
<path d="M145.685 209.515L154.891 202.153C147.739 201.364 144.801 205.264 143.598 208.351C138.011 206.031 131.929 209.071 131.929 209.071L150.348 215.758C149.419 213.276 147.801 211.111 145.685 209.515V209.515Z" fill="#3F3D56"/>
<path d="M285.685 284.515L294.891 277.153C287.739 276.364 284.801 280.264 283.598 283.351C278.011 281.031 271.929 284.071 271.929 284.071L290.348 290.758C289.419 288.276 287.801 286.111 285.685 284.515V284.515Z" fill="#3F3D56"/>
<path d="M134.685 348.515L143.891 341.153C136.739 340.364 133.801 344.264 132.598 347.351C127.011 345.031 120.929 348.071 120.929 348.071L139.348 354.758C138.419 352.276 136.801 350.111 134.685 348.515Z" fill="#3F3D56"/>
<path opacity="0.2" d="M444.5 547.361C444.522 563.449 441.209 579.367 434.77 594.111L227.4 490.191L211.63 482.361L233 481.191L418.21 471.071C435.84 491.551 444.5 518.211 444.5 547.361Z" fill="black"/>
<path d="M469.5 482.361H171.5V458.361L319.5 396.361L469.5 458.361V482.361Z" fill="#3F3D56"/>
</svg>
